<?xml version="1.0" encoding="utf-8"?>
<!-- Generator: Adobe Illustrator 19.2.0, SVG Export Plug-In . SVG Version: 6.00 Build 0)  -->
<svg version="1.1" id="Calque_1" xmlns="http://www.w3.org/2000/svg" xmlns:xlink="http://www.w3.org/1999/xlink" x="0px" y="0px"
	 viewBox="0 0 831 596" style="enable-background:new 0 0 831 596;" xml:space="preserve">
<style type="text/css">
	.st0{opacity:0.35;fill:#FFFFFF;}
</style>
<g id="Regal_Vector_Pack_13">
	<g id="Regal_Vector_Pack_15">
		<path class="st0" d="M313.7,172.4c4.5,6.3,10.1,12.8,17.2,18.9c1.2-8.4,3.1-15.5,4.7-20.6C328.3,171.5,321,172.1,313.7,172.4z
			 M335.4,243c-0.2-0.4-0.3-0.9-0.5-1.3c-28.6-8.3-46.6-25.6-57.5-41.2c-9.8-14-13.9-26.5-14.9-29.9c-12.3-1.5-24.4-3.6-36.4-6.5
			l0,0l0,0c-3.7-1-7.2-2.1-10.8-3.3c-14,3.1-22.5,6.3-22,8.9c0.7,4,23.3,4.8,53.5,2.6c-28.8,8.2-49,17.1-47.8,20.9
			c1.3,3.9,23.5,1.4,52.8-5c-27,12.2-45.7,23.8-43.9,27.5c1.8,3.6,23.3-1.9,51.1-12.4c-24.8,15.8-41.5,29.9-39.2,33.2
			c2.3,3.3,22.7-5.2,48.5-19.3c-22.1,19-36.5,35.1-33.8,38.1c2.7,2.9,21.6-8.2,45.1-25.6c-19.1,21.6-31,39.5-27.9,42
			c3.1,2.5,20.2-11,40.8-31.1c-15.7,23.8-24.9,42.8-21.4,44.9c3.4,2,18.3-13.4,35.7-35.9c-12,25.4-18.3,45.2-14.6,46.7
			c3.7,1.5,16.2-15.4,30.1-39.7c-8.1,26.4-11.4,46.5-7.5,47.5c3.9,1,13.8-17.1,23.9-42.6c-4,26.8-4.3,46.9-0.3,47.4
			c3.6,0.5,9.6-14.5,15.2-36.4C345.5,263.8,339.4,253.9,335.4,243z M311,172.5c-4.7,0.2-9.4,0.2-14.1,0.2c1.5,2.6,3.3,5.4,5.2,8.2
			c6.4,9.1,15.3,18.9,27.4,27c0-4.9,0.4-9.6,0.9-14c-8-6.7-14.3-14-19.2-20.9C311.2,172.8,311.1,172.7,311,172.5z M414.5,207.7
			c0,0-5.4,21.8-9.9,40c-4.5,18.1-16.7,37.4-30.8,22.1c-14.1-15.3-30.1-80,22.4-115.6c0,0-1.4-17.4-43.2-11.1c0,0,13.7,0.2,20.9,5.2
			c-4.8,1.7-12.4,3-28-3c-26-9.9-31.3-25.6-31.3-25.6c-1.1,2.5-1.6,4.9-1.6,7.2c-70.8,2.9-140.8-22.2-194-71.3
			c0.5,4.6,2,14.5,12.5,29.2c10.5,14.3,30.1,33.4,66.7,47.6c33.7,12.7,69.5,19.1,105.7,18.9c1.2,0.7,2.5,1.4,3.7,2.1
			c-53.3,1-106.1-12.4-152.5-38.9c0.1,0,4.9,6.8,16.7,16.2c11.8,9.3,30.5,21.3,57.3,28.7c36.3,8.7,74.2,11,111.8,6.2
			c-5.5,16.2-18.4,66.1,17.5,103.9c43.4,45.7,7,49.4,29.3,65.4l32.2-130.6C420.2,204.3,417.2,204,414.5,207.7z M265,170.8
			c0.1,0.2,0.1,0.4,0.2,0.7c0.5,1.6,1.3,3.8,2.5,6.6c2.3,5.5,6,13.1,11.7,21.1c10.5,15,27.6,31.5,54.7,39.8c-1.2-4-2.2-8.1-3-12.3
			c-19.7-9.2-33-22.8-41.8-35.3c-5.1-7.2-8.6-14-11-19.4C273.9,171.7,269.4,171.3,265,170.8z M281.9,172.2c-0.3,0-0.7,0-1-0.1
			c2.3,5.1,5.7,11.4,10.3,18c8.4,11.9,21,24.9,39.5,33.9c-0.6-3.9-0.9-7.8-1-11.8c0-0.5,0-1.1,0-1.6c-13-8.4-22.5-18.7-29.3-28.4
			c-2.3-3.3-4.3-6.5-6-9.5C290.2,172.6,286,172.5,281.9,172.2z"/>
		<path class="st0" d="M526.7,217.8c-1,5.3-2.6,12.4-5.5,20.5c9.1-2.1,17.1-5.2,24-8.7C538.9,225.8,532.7,221.9,526.7,217.8z
			 M463.4,299.6c-5.2,22-6.8,38.1-3.4,39.3c3.8,1.4,12.8-16.5,21.8-42.1c-2.9,27.3-2.6,47.9,1.3,48.8c3.9,0.9,10.3-18.5,15.4-45.6
			c1,27.9,4.2,48.8,8.2,49.1c4,0.3,7.6-20.1,8.8-48.1c4.9,28,11,48.6,14.9,48.4c4-0.2,4.7-21.4,1.9-49.7
			c8.8,27.4,17.7,47.3,21.6,46.5c3.9-0.8,1.7-22.1-5.1-50.1c12.7,26.3,24.2,45,28,43.6c3.8-1.4-1.5-22.4-12.2-49.5
			c16.3,24.5,30.4,41.5,34,39.7c3.6-1.9-4.6-22.1-19.3-47.7c19.8,22.2,36.3,37.1,39.5,34.7c3.3-2.4-7.8-21.4-26.1-44.7
			c22.9,19.3,41.5,31.8,44.4,29c2.9-2.8-10.9-20.1-32.5-40.8c25.7,16,46.1,25.8,48.6,22.6c1.6-2-4.4-8.9-15.4-18.1
			c-3.7-0.6-7.4-1.2-11.1-2.1l0,0l0,0c-11.9-3-23.7-6.8-35.2-11.2c-2.5,2.6-12,11.7-27.1,19.6c-16.9,8.7-40.9,15.6-70,9.7
			c-0.3,0.3-0.7,0.6-1,1C484.6,289.7,474.6,295.6,463.4,299.6z M547,231.2c-7.6,3.9-16.5,7.4-26.7,9.6c-1.6,4.1-3.4,8.4-5.7,12.8
			c14.5-1.5,26.9-6,36.8-11.1c3.1-1.6,5.9-3.2,8.5-4.8c-4.2-2.1-8.3-4.4-12.4-6.7C547.4,231,547.2,231.1,547,231.2z M436.1,208.2
			l-32.2,130.6c27.2-3.8-3.3-24,56.4-44.2c49.3-16.7,61.2-67,63.8-83.8c31.1,21.7,65.7,37.4,101.9,46.6c27.2,5.9,49.3,4.1,64.1,1.3
			c14.9-2.9,22.3-6.7,22.4-6.6c-53.4,1.8-106.3-10.8-153.1-36.5c1.4,0,2.8-0.1,4.3-0.1c31.9,17,66.6,28,102.3,32.4
			c39,4.5,65.2-3.3,81.2-11.1c16.2-8.1,22.1-16.1,24.7-20c-70,18.7-143.6,8.3-204.9-27.2c1-2.1,1.7-4.4,1.9-7.2
			c0,0-12,11.5-39.6,8.1c-16.6-2-22.7-6.6-26.1-10.4c8.6-1.1,20.9,5.1,20.9,5.1c-34-25-43.4-10.3-43.4-10.3
			c29.9,55.9-14.3,105.8-34,112.7c-19.6,7-21.5-15.8-17-33.9c4.5-18.1,9.9-40,9.9-40C438.9,209.3,436.1,208.2,436.1,208.2z
			 M576.7,245.7c-4.6,3.7-10.9,8.1-18.8,12.1c-13.6,7-31.7,12.8-53.4,11.8c-2.6,3.4-5.4,6.6-8.3,9.5c27.9,5.3,50.7-1.4,67-9.8
			c8.7-4.5,15.5-9.4,20.1-13.3c2.3-1.9,4.1-3.5,5.3-4.7c0.2-0.2,0.3-0.3,0.5-0.5C584.9,249.2,580.8,247.5,576.7,245.7z M562.2,238.8
			c-2.9,1.9-6.2,3.8-9.8,5.6c-10.5,5.4-23.7,10.1-39.1,11.5c-0.3,0.5-0.5,0.9-0.8,1.4c-2,3.5-4.1,6.8-6.4,10
			c20.6,0.7,37.8-4.9,50.7-11.6c7.2-3.7,13-7.7,17.5-11.1c-0.3-0.1-0.6-0.3-1-0.4C569.7,242.5,565.9,240.7,562.2,238.8z"/>
	</g>
</g>
</svg>
