<?xml version="1.0" encoding="utf-8"?>
<!-- Generator: Adobe Illustrator 19.2.0, SVG Export Plug-In . SVG Version: 6.00 Build 0)  -->
<svg version="1.1" id="Calque_1" xmlns="http://www.w3.org/2000/svg" xmlns:xlink="http://www.w3.org/1999/xlink" x="0px" y="0px"
	 viewBox="0 0 831 596" style="enable-background:new 0 0 831 596;" xml:space="preserve">
<style type="text/css">
	.st0{opacity:0.5;fill:#FFFFFF;}
</style>
<g id="Regal_Vector_Pack_13">
	<path class="st0" d="M421.2,409.6c-2.2-11-0.3-23.7,2.7-36c3.2-10.6,8.2-20.9,16.4-28.8c-3.9,2.9-7.2,6.4-10.2,10.2
		c0.1-0.1,0.1-0.2,0.2-0.3l0.7-1.3l0,0c5.3-11.5,9.3-24.1,8.7-36.7c-0.3,4.2-1.1,8.4-2.2,12.4c-0.5-7.9-3.7-15.1-7.9-21.2
		c1.3,2.9,2.4,5.9,3.1,9c-4.7-4.6-10.8-6.1-16.6-7.5c5.2,1.8,10.6,4.1,14.1,7.9c-7.6-6.1-20.1-2.8-33.5-1.9c0,0,0,0,0,0
		c-7.8-1.2-16.6-3.5-20.8-11.2c1.4,4.4,4.6,7.7,8.4,10.2c-8.7-2.7-15.5-10.7-18.8-19.9c1.2,6,4.1,12,8.4,16.8
		c-11.9-8.6-14.4-28-14.4-28c-0.8,3.2-0.6,6.9,0,10.5c-5.5-8.8-11.9-16.9-17-21.2c-10.1-8.6-10.5-19.4-10.5-19.4
		c-2.7,10.8,3.3,25.1,3.3,25.1c-4.5-8.2-8-22-8-22c1.4,17,5,27.7,8.3,34.1c-11.4-19.8-10.6-44-28.4-56.1
		c-20.5-13.9-34.5-39.1-34.5-39.1c-2.4,6.3,0.6,19,0.6,19c-4.5-15.6-7.1-31.3-7.1-31.3c-1.7,8.7-0.1,21.6,1.7,31.6
		c-3.5-12.7-6-26.3-6-26.3c-3.7-4.2-12-13.8-25.6-21.6c-13.6-7.7-24-24-24-24c2.4,5.3,7.4,15.2,7.4,15.2
		c-8.6-9.9-13.4-25.8-13.4-25.8c0.5,5.6,1.8,10.6,3.2,14.5c-0.1-0.1-0.1-0.2-0.2-0.3l-0.7-1.3l0,0c-6-10.7-7.8-25-16.4-34.9
		c6.3,9.3,7.2,20.2,10.5,31c-9-14.7-12.8-28.5-12.8-28.5c0.1,6.3,1.7,12.6,3.7,18.3c-4.5-8.6-9-18.3-11.8-27.6c0,0-9,35.2,13.9,70.7
		c0,0,11.2,10.1,23.8,17.5c-7.6-2.4-19.2-9.8-19.2-9.8s6.8,7.8,18.2,13.7c2.2,1.1,4.5,2.5,6.8,4c-8.5-3.9-17.3-7.1-26.6-7.8
		c12.6,2.4,23.4,9.3,34,16.1l0,0l1.3,0.8c3.8,2.3,7.4,4,10.1,5.1c0.5,0.4,0.7,0.6,0.7,0.6c-11.7-2-31.7-14.7-31.7-14.7
		c10.2,11.7,36.3,21.2,36.3,21.2c-18.1-3.3-36.5-14.2-36.5-14.2c13.4,9.4,39.3,19.2,39.3,19.2c-11.6,0.6-28-6.8-28-6.8
		c13.4,21.6,32.7,44.4,32.7,44.4c9.3-0.2,23.5,3.4,23.5,3.4c-12-1.7-23.1,3.2-23.1,3.2s19.3-0.9,33.5,4.6c2.2,0.8,4.3,1.6,6.3,2.4
		c-8.7-1.7-17.8-3.5-26.4-1.1c10.2-1.4,19.7,2.7,29.5,5.8c-0.2,0-0.4,0-0.7,0c-2.7-0.1-5.7-0.6-8.6-0.8c-5.8-0.6-11.7-0.6-17.5,0
		c5.8,0,11.5,0.8,17.2,2.1c2.9,0.6,5.5,1.3,8.6,1.9c3,0.4,6,0.5,8.9,0.7l0,0l1.3,0c1.1,0,2.1,0,3,0c-9.4,2.1-22.6,0.6-29.1-0.4
		c-14.4-4.4-25.8-11.5-25.8-11.5c0.8,5.6,8.1,13.6,8.1,13.6c-9.6-9.5-17.8-19.9-17.8-19.9c2.3,7.1,8.6,15.8,14.1,22.4
		c-7.7-7.9-15.1-16.7-15.1-16.7c-4.4-1.6-14.4-5.2-27.4-5.4c-13-0.2-27.2-7.8-27.2-7.8c3.9,2.8,11.6,8.1,11.6,8.1
		c-10.3-3.8-20.2-13.4-20.2-13.4c2.6,3.9,5.6,7,8.2,9.3c-0.1-0.1-0.2-0.1-0.3-0.2l-1-0.6l0,0c-8.7-5.4-15.8-15.1-26.1-18.9
		c8.4,4.2,13.4,11.8,20.2,18.4c-12.5-7.1-20.9-15.6-20.9-15.6c2.6,4.6,6.3,8.5,10.1,11.9c-6.8-4.4-14-9.7-19.8-15.4
		c0,0,7.7,29.3,38.8,46c0,0,12.3,2.9,24.4,3.1c-6.5,1.3-18,0.6-18,0.6s8.1,3,18.9,2.6c2-0.1,4.3,0,6.6,0.2
		c-7.8,0.6-15.5,1.8-22.5,5.1c10.1-3.4,20.9-2.7,31.3-2l0,0l1.2,0c3.7,0.1,7.1,0,9.5-0.4c0.5,0.1,0.8,0.2,0.8,0.2
		c-9.3,3.3-29.1,2.1-29.1,2.1c12.2,4.4,35.1,0.8,35.1,0.8c-14.5,5-32.4,4.5-32.4,4.5c13.6,1.4,36.4-1.9,36.4-1.9
		c-8.2,5.1-23.2,6.4-23.2,6.4c18.5,10.3,41.8,19.1,41.8,19.1c6.7-3.9,18.5-7.1,18.5-7.1c-9.5,3.6-15.6,11.7-15.6,11.7
		s13.7-8.5,26.4-10.2c1.9-0.3,3.8-0.6,5.6-0.9c-7,2.3-14.4,4.6-19.7,9.9c6.9-5.2,15.5-6,23.8-7.7c-0.2,0.1-0.3,0.2-0.5,0.3
		c-2,1-4.4,1.9-6.6,2.9c-4.5,2-8.8,4.3-12.8,7.1c4.3-2.3,8.8-4.1,13.4-5.4c2.3-0.7,4.6-1.3,7-2.1c2.4-0.9,4.6-2,6.8-3.1l0,0l1-0.5
		c0.8-0.4,1.5-0.8,2.2-1.2c-3.2,2.8-7.6,5.4-11.9,7.4c-1.2,0.3-2.3,0.7-3.4,1.3c-15.9,7.4-36.3,6.6-36.3,6.6
		c2.9,3.8,11.7,6.5,11.7,6.5c-11.1-2.9-21.6-7.1-21.6-7.1c4.7,4.2,13,7.9,19.8,10.5c-9-2.5-18.2-5.9-18.2-5.9
		c-3.9,0.7-12.8,2.2-22.4,7.6c-9.6,5.4-23.3,5.8-23.3,5.8c4.1,0.4,11.9,1.1,11.9,1.1c-9.2,1.6-20.5-1.3-20.5-1.3
		c3.6,1.8,7.1,2.8,9.9,3.3c-0.1,0-0.2,0-0.3,0l-1-0.1l0,0c-8.7-0.3-18-4.4-27.2-2.8c7.9-0.5,14.9,3,22.7,5
		c-12.2,0.1-21.9-2.6-21.9-2.6c3.9,2.2,8.3,3.6,12.5,4.4c-6.9-0.4-14.4-1.2-21.1-2.9c0,0,18.1,18.3,48,17.4c0,0,10.2-3.1,19.3-8
		c-4.2,3.7-13,8.1-13,8.1s7.2-1.3,15-6.1c1.5-0.9,3.2-1.8,4.9-2.7c-5.4,3.7-10.6,7.9-14.4,13.3c6-6.7,14.2-10.8,22.2-14.7l0,0
		l0.9-0.5c2.8-1.5,5.2-3,6.8-4.3c0.4-0.1,0.6-0.2,0.6-0.2c-5.5,6.4-20.5,13.9-20.5,13.9c10.8-1.9,26.1-14.3,26.1-14.3
		c-8.6,9.8-21.9,17-21.9,17c10.6-4.7,26-16.8,26-16.8c-3.9,7.3-14.3,14.5-14.3,14.5c18-0.3,38.8-3.6,38.8-3.6
		c3.3-5.7,10.6-13,10.6-13c-5.4,6.7-6.5,15.2-6.5,15.2s6.5-12,15-18.7c1.3-1,2.6-2,3.7-3c-4.2,4.7-8.6,9.5-10.3,15.6
		c2.8-6.7,8.8-11,14.2-15.8c-0.1,0.1-0.2,0.3-0.2,0.4c-1.1,1.6-2.4,3.3-3.6,4.9c-2.5,3.3-4.7,6.9-6.4,10.6c2.1-3.5,4.7-6.7,7.5-9.6
		c1.4-1.5,2.8-2.9,4.3-4.5c1.4-1.7,2.5-3.4,3.7-5.1l0,0l0.5-0.8c0.4-0.6,0.8-1.2,1.1-1.8c-1.3,3.8-3.8,8-6.3,11.5
		c-0.3,0.3-0.5,0.7-0.8,1c-8.8,11.8-24.3,19.5-24.3,19.5c3.7,1.6,11.3,0.1,11.3,0.1c-9.4,2.3-18.8,3.4-18.8,3.4
		c5.2,1.2,12.9,0.6,18.9-0.2c-7.7,1.7-15.8,2.9-15.8,2.9c-2.6,2.1-8.6,6.8-13.6,14.7c-5,7.9-15,13.7-15,13.7c3.2-1.3,9.3-4,9.3-4
		c-6.1,4.9-15.7,7.3-15.7,7.3c3.4-0.1,6.4-0.8,8.7-1.5c-0.1,0-0.1,0.1-0.2,0.1l-0.8,0.4l0,0c-6.5,3.3-15.1,4-21.3,8.8
		c5.7-3.5,12.3-3.8,18.8-5.4c-9,5-17.3,6.9-17.3,6.9c3.8,0.1,7.6-0.7,11-1.7c-5.2,2.5-11.2,4.9-16.8,6.3c0,0,20.8,6.3,42.5-6.4
		c0,0,6.3-6.4,11.1-13.7c-1.6,4.5-6.4,11.2-6.4,11.2s4.8-3.8,8.7-10.5c0.7-1.3,1.6-2.6,2.6-3.9c-2.5,5-4.7,10.1-5.4,15.6
		c1.8-7.4,6.2-13.7,10.5-19.9l0,0l0.5-0.7c1.4-2.2,2.6-4.3,3.3-5.9c0.2-0.3,0.4-0.4,0.4-0.4c-1.5,6.9-9.6,18.5-9.6,18.5
		c7.3-5.8,13.6-21.1,13.6-21.1c-2.4,10.7-9.4,21.4-9.4,21.4c6-7.8,12.5-22.9,12.5-22.9c0,6.9-4.8,16.5-4.8,16.5
		c13.2-7.4,27.3-18.3,27.3-18.3c0.1-5.6,2.6-13.9,2.6-13.9c-1.3,7.1,1.3,13.9,1.3,13.9s0-11.5,3.7-19.9c0.6-1.3,1.1-2.5,1.6-3.7
		c-1.2,5.2-2.6,10.5-1.4,15.7c-0.6-6.1,2.1-11.7,4.2-17.4c0,0.1,0,0.3,0,0.4c-0.2,1.6-0.5,3.4-0.7,5.1c-0.5,3.5-0.7,7-0.4,10.4
		c0.2-3.5,0.8-6.8,1.7-10.2c0.4-1.7,0.9-3.3,1.3-5.1c0.3-1.8,0.5-3.6,0.7-5.3l0,0l0-0.8c0-0.6,0.1-1.2,0.1-1.8
		c0.8,4.4,0.2,10.2-0.5,14.3c-0.2,0.9-0.4,1.8-0.5,2.8c0,0.1,0,0.2,0,0.2c-0.3,1.5-0.5,2.3-0.5,2.3c0.1-0.1,0.1-0.2,0.2-0.3
		c-1.9,12.1-9.1,23.3-9.1,23.3c3.5-0.5,8.6-5,8.6-5c-6,6-12.6,11.1-12.6,11.1c4.5-1.4,10-5.3,14.2-8.7c-5,4.8-10.6,9.4-10.6,9.4
		c-1,2.7-3.4,9-3.5,17.2c-0.2,8.2-5.1,17-5.1,17c1.8-2.4,5.2-7.2,5.2-7.2c-2.4,6.5-8.5,12.6-8.5,12.6c2.5-1.6,4.4-3.5,5.9-5.1
		c0,0.1-0.1,0.1-0.1,0.2l-0.4,0.6c-3.4,5.4-9.6,9.8-12,16.3c2.7-5.2,7.5-8.4,11.7-12.6c-4.5,7.8-9.9,13-9.9,13
		c2.9-1.6,5.4-3.9,7.5-6.3c-2.8,4.2-6.2,8.7-9.8,12.4c0,0,18.5-4.7,29.1-24.1c0,0,1.9-7.7,2.1-15.3c0.8,4.1,0.3,11.3,0.3,11.3
		s1.9-5.1,1.8-11.8c0-1.3,0-2.7,0.1-4.1c0.3,4.9,1,9.8,3.1,14.2c-2-6.4-1.6-13.1-1.1-19.7l0,0l0-0.8c0.1-2.3,0-4.4-0.2-5.9
		c0.1-0.3,0.1-0.5,0.1-0.5c2,5.9,1.2,18.3,1.2,18.3c2.9-7.6,0.7-22,0.7-22c3,9.2,2.6,20.4,2.6,20.4c1-8.6-1-22.9-1-22.9
		c3.2,5.2,3.9,14.6,3.9,14.6c6.6-11.6,12.3-26.2,12.3-26.2c-2.4-4.3-4.3-11.7-4.3-11.7c2.2,6,7.2,9.8,7.2,9.8s-5.2-8.7-6.2-16.6
		c-0.2-1.2-0.3-2.4-0.5-3.5c1.4,4.4,2.8,9.1,6.1,12.5c-3.2-4.3-3.7-9.8-4.7-15c0.1,0.1,0.1,0.2,0.2,0.3c0.6,1.3,1.2,2.8,1.8,4.2
		c1.2,2.8,2.6,5.6,4.4,8c-1.4-2.7-2.5-5.5-3.3-8.4c-0.5-1.5-0.8-2.9-1.3-4.4c-0.6-1.5-1.2-2.9-1.9-4.3l0,0l-0.3-0.6
		c-0.3-0.5-0.5-1-0.7-1.4c4.5,5.2,7.8,15.5,7.8,15.5c0.7-3.5,1.1-6.8,1.3-10c1.4,2.1,2.5,3.2,2.5,3.2c-0.3-1.2-0.5-2.3-0.6-3.4
		c1.2,2.4,2.7,4.5,4.7,6c-1.9-2.7-2.7-5.7-2.8-8.7l1.6,3.3l0.1-4.1l2.5,7.3l0-7.6c0.2,0.6,0.3,1.1,0.4,1.7l0.2,1l0,0
		c2.3,8.5,0.1,18.2-3.4,27c2.2-3.9,4.3-8,5.7-12.3c-1.8,26.5,1.2,40.8,16.9,49.1c16.2,8.5,31.9-11.6,31.9-11.6
		S427.4,441.3,421.2,409.6z"/>
	<path class="st0" d="M711.4,292.5c0,0-8.8,5.1-20.6,8c7-3.8,12.9-8.9,20.7-10.5c-9.3,0.8-17.3,7.1-25.6,9.5l0,0l-1,0.3
		c-0.1,0-0.2,0-0.3,0.1c2.6-1.3,5.7-3.1,8.8-5.7c0,0-10.3,5.6-19.6,6.4c0,0,7.4-2.6,11.3-4c0,0-13.3,3-24,0.2
		c-10.7-2.8-19.7-2.1-23.6-1.8c0,0-8,5.6-16.1,10.3c5.9-4.2,13.1-9.9,16.6-15.1c0,0-9.1,6.7-19.1,12.3c0,0,7.8-4.9,9.7-9.3
		c0,0-19.6,5.8-36.8,2.6c-1.2-0.2-2.4-0.3-3.6-0.4c-4.6-0.9-9.5-2.3-13.3-4.2c0.8,0.2,1.6,0.4,2.5,0.6l1.1,0.3l0,0
		c2.4,0.5,4.8,1,7.3,1.3c2.6,0.2,4.9,0.2,7.4,0.3c4.8,0.2,9.6,0.7,14.3,1.9c-4.5-1.8-9.3-2.9-14.1-3.7c-2.4-0.4-4.9-0.7-7.1-1.2
		c-0.2,0-0.4-0.1-0.5-0.1c8.5-0.4,17.1-1.8,25,1.5c-6.5-3.8-14.2-4.2-21.6-4.7c1.8-0.2,3.7-0.4,5.6-0.6c12.7-1.5,28.1,3.3,28.1,3.3
		s-7.9-6.3-18-7.4c0,0,12.2,0.1,19.7,2.2c0,0,20.4-14.4,35.7-29c0,0-14.8,2.5-24.1-0.4c0,0,22.9-2.4,35.8-7.2c0,0-17.2,4.9-32.5,3.8
		c0,0,23.1-2.2,33.8-9.5c0,0-18.8,6.1-28.7,5.2c0,0,0.2-0.1,0.7-0.3c2.4-0.3,5.7-1,9.2-2l1.2-0.3l0,0c10-3.3,20.2-6.6,30.9-5.9
		c-7.6-1.4-15.4-0.6-23.1,0.7c2.2-0.7,4.3-1.4,6.3-1.8c10.5-2.4,17.6-7.3,17.6-7.3s-11,3.6-17.6,3.9c11.7-3.3,22.9-9.2,22.9-9.2
		c25.9-23.9,26.1-54.2,26.1-54.2c-4.2,6.9-9.9,13.9-15.3,19.9c2.8-4.2,5.4-9,6.9-14c0,0-6,10.4-16.3,20.3c4.9-8.1,7.9-16.7,15-22.9
		c-9.1,6.3-13.5,17.4-20.6,24.8l0,0l-0.8,0.9c-0.1,0.1-0.2,0.2-0.2,0.2c1.9-2.9,4-6.6,5.6-11c0,0-7.2,11.8-16.2,18
		c0,0,6.1-7,9.2-10.7c0,0-11.8,11-24.4,14.4c-12.6,3.4-21.3,9.4-25.2,12.1c0,0-4.9,10.4-10.4,20c3.6-7.8,7.5-17.8,8-25.2
		c0,0-5.4,12.2-12.3,23.8c0,0,5.1-9.6,4.5-15.2c0,0-9.3,9.8-22.1,17.6c-6.1,2.6-18.5,7.3-28.1,7.7c0.9-0.3,1.9-0.5,2.9-0.8l1.3-0.4
		l0,0c2.7-0.9,5.6-1.7,8.4-2.9c2.9-1.3,5.2-2.7,7.9-4c5.1-2.6,10.5-4.8,16.1-6.3c-5.7,0.8-11.4,2.3-16.9,4.3
		c-2.7,0.9-5.6,2.1-8.1,2.9c-0.2,0.1-0.4,0.1-0.6,0.2c8.7-5.4,16.9-11.8,27.1-12.9c-9-0.2-17.3,3.9-25.3,7.7
		c1.8-1.2,3.7-2.5,5.6-3.9c12.4-8.9,31.3-12.9,31.3-12.9s-11.9-1.9-23.1,2.7c0,0,12.8-7,21.9-9.1c0,0,12.9-26.9,20.6-51.1
		c0,0-14,11.2-25.4,13.6c0,0,22.6-15.9,33.2-28.4c0,0-15.1,15.2-31.8,22.8c0,0,22.9-15.7,29.9-29.6c0,0-16.2,17.3-27,22.1
		c0,0,0.2-0.3,0.5-0.8c2.3-1.7,5.4-4.4,8.5-7.5l1-1.1l0,0c8.6-9.2,17.3-18.7,28.9-24.1c-8.8,3-16.5,8.3-23.8,14.2
		c1.9-2,3.7-3.9,5.6-5.6c9.6-8.6,14.2-17.8,14.2-17.8s-9.4,10.1-16.2,14.3c10.3-10.3,18.6-22.9,18.6-22.9
		c13.3-40.1-4.2-71.9-4.2-71.9c-0.4,9.7-2.3,20.3-4.5,29.7c0.6-6,0.5-12.5-1-18.7c0,0-0.3,14.3-5.3,30.8c0.5-11.3-1.4-22.1,2.4-32.7
		c-5.9,11.8-4,26.1-7.1,37.9l0,0l-0.3,1.4c0,0.1-0.1,0.3-0.1,0.4c0.4-4.1,0.4-9.2-0.5-14.8c0,0-0.7,16.6-6.5,28.3
		c0,0,2.3-10.9,3.4-16.6c0,0-6,18.3-17.2,29.2c-11.2,10.9-16.9,22.3-19.4,27.3c0,0,0.9,13.8,0.7,27c-0.8-10.2-2.4-23-6.3-31
		c0,0,1.5,15.8,0.9,32c0,0-0.2-13-4.1-18.5c0,0-7.2,28-23.6,46.5c-14.3,16.2-7.4,39.5-13.5,61.5c1.5-7,2.4-18.3-0.5-35.1
		c0,0,0,14.2-2.3,23.3c0,0,2.3-15.3-3.1-25.1c0,0,2.3,10.5-5.3,21.4c-3.8,5.4-8,14.9-11.1,24.8c-0.3-3.7-1-7.3-2.6-10.2
		c0,0,2.4,19.4-7,30.7c3-5.7,4.2-12.3,3.9-18.4c-0.8,9.7-5.5,19.2-13.2,24c3.1-3.4,5.3-7.4,5.6-12c-2.1,8.5-10.1,13-17.3,16.1
		c0,0,0,0,0,0c-13.2,2.5-26.1,2.4-31.9,10.2c2.5-4.6,7.2-8.1,11.7-11.2c-5.3,2.8-10.8,5.8-14.2,11.4c-0.1-3.1,0.2-6.3,0.8-9.5
		c-2.5,6.9-3.8,14.7-2.3,22.5c-2.1-3.6-3.9-7.4-5.3-11.4c2.6,12.4,9.6,23.5,17.6,33.4l0,0l1,1.1c0.1,0.1,0.1,0.2,0.2,0.2
		c-3.8-3-8-5.5-12.4-7.3c9.9,5.6,17.4,14.3,23.1,23.7c5.9,11.2,10.9,23,11.6,34.2c1.9,32.2-30.3,14.7-30.3,14.7s20.3,15.6,33.8,3.2
		c13.2-11.9,12.4-26.5,4.1-51.8c2.5,3.9,5.5,7.3,8.6,10.5c-5.5-7.6-10.1-16.4-10-25.2l0,0l0-1c0-0.6,0-1.2,0-1.8l1.9,7.4l0.6-7.7
		l1.1,3.9l0.8-3.6c0.6,2.9,0.6,6.1-0.6,9.1c1.5-2,2.6-4.4,3.1-7c0.2,1.1,0.2,2.2,0.2,3.4c0,0,0.8-1.3,1.6-3.7c1,3,2.3,6.1,3.8,9.4
		c0,0,0.6-10.7,3.7-17c-0.1,0.5-0.2,1-0.4,1.6l-0.2,0.7l0,0c-0.3,1.5-0.6,3-0.8,4.6c-0.1,1.6-0.1,3.1-0.1,4.6c-0.1,3-0.4,6-1.1,9
		c1.1-2.8,1.8-5.9,2.2-8.9c0.2-1.5,0.4-3.1,0.7-4.5c0-0.1,0.1-0.2,0.1-0.3c0.3,5.3,1.2,10.7-0.8,15.7c2.3-4.1,2.5-8.9,2.8-13.6
		c0.1,1.1,0.2,2.3,0.4,3.5c1,8-1.9,17.7-1.9,17.7s3.9-5,4.5-11.3c0,0,0,7.6-1.3,12.4c0,0,9.2,12.7,18.4,22.3c0,0-1.7-9.3,0.1-15.1
		c0,0,1.7,14.4,4.8,22.4c0,0-3.2-10.8-2.6-20.4c0,0,1.5,14.5,6.2,21.2c0,0-3.9-11.8-3.4-18c0,0,0.1,0.2,0.2,0.4
		c0.2,1.5,0.7,3.6,1.3,5.8l0.2,0.7l0,0c2.1,6.3,4.3,12.7,3.9,19.3c0.8-4.8,0.3-9.7-0.6-14.5c0.5,1.4,0.9,2.7,1.2,4
		c1.5,6.6,4.7,11,4.7,11s-2.3-6.9-2.6-11c2.2,7.3,5.9,14.3,5.9,14.3c15.2,16.1,34.2,16,34.2,16c-4.4-2.6-8.8-6.1-12.6-9.5
		c2.6,1.8,5.7,3.4,8.8,4.2c0,0-6.5-3.7-12.9-10.1c5.1,3,10.5,4.9,14.5,9.3c-4-5.7-11-8.4-15.7-12.8l-0.6-0.5c0,0-0.1-0.1-0.1-0.1
		c1.8,1.2,4.2,2.5,7,3.5c0,0-7.5-4.5-11.4-10.1c0,0,4.4,3.8,6.8,5.7c0,0-7-7.4-9.2-15.2c-2.2-7.9-6.1-13.4-7.7-15.7
		c0,0-6.6-3-12.6-6.4c4.9,2.2,11.2,4.6,15.9,4.9c0,0-7.7-3.3-15-7.6c0,0,6,3.2,9.6,2.7c0,0-9.8-9.1-14.7-20.3
		c0.1,0.1,0.2,0.1,0.3,0.2c0,0-0.4-0.8-1.1-2.1c0-0.1-0.1-0.2-0.1-0.2c-0.3-0.9-0.7-1.8-1.2-2.6c-1.7-3.9-3.7-9.3-4.1-13.8
		c0.2,0.5,0.4,1.1,0.6,1.7l0.2,0.8l0,0c0.6,1.6,1.2,3.3,2,4.9c0.8,1.7,1.7,3,2.6,4.6c1.7,3,3.2,6.1,4.2,9.4c-0.6-3.4-1.7-6.8-3-10
		c-0.6-1.6-1.4-3.3-2-4.8c0-0.1-0.1-0.3-0.1-0.4c3.4,5,7.5,9.8,8.4,15.8c-0.1-5.4-2.8-10.2-5.3-14.9c0.8,1,1.6,2.1,2.5,3.2
		c5.7,7.2,8.5,18.3,8.5,18.3s0.8-7.2-2.2-13.7c0,0,4.5,7.5,6,12.8c0,0,16.4,7,31.1,10.9c0,0-7.1-8.1-8.8-14.8c0,0,10.1,13,17.8,19.1
		c0,0-9.5-8.6-14.5-18.4c0,0,10,13.3,18.5,17c0,0-10.7-9.2-13.9-15.5c0,0,0.2,0.1,0.5,0.3c1.1,1.4,2.7,3.1,4.7,4.9l0.7,0.6l0,0
		c5.7,4.9,11.6,9.8,15.2,16.6c-2-5.2-5.4-9.6-9.1-13.8c1.3,1.1,2.4,2.1,3.5,3.2c5.4,5.5,11,8,11,8s-6.3-5.4-9-9.3
		c6.4,5.9,14.2,10.5,14.2,10.5c24.3,6.9,42.8-4.4,42.8-4.4c-5.8,0-12.2-0.8-17.8-1.9c3.6,0.2,7.5,0,11.1-1.1c0,0-8.6,0.2-18.5-2.3
		c6.8,0,13.2-1.4,19.6,0.6c-7.2-3.2-15.7-1.7-22.8-3.2l0,0l-0.8-0.2c-0.1,0-0.2,0-0.2-0.1c2.5,0.1,5.5,0,8.8-0.7c0,0-9.9,0-17.1-3.1
		c0,0,6.5,1.1,10,1.6c0,0-11.1-3.1-17.9-9.5c-6.8-6.4-13.7-9.5-16.8-10.8c0,0-8.2,0.9-16.1,1.1c6.1-0.7,13.7-2.1,18.4-4.6
		c0,0-9.4,1.3-19.1,1.4c0,0,7.7-0.5,10.9-3c0,0-16.9-3.6-28.4-12.8c-0.3-0.3-0.7-0.5-1-0.8c-3.3-2.8-6.8-6.2-9-9.6
		c0.5,0.5,1,1,1.6,1.5l0.7,0.7l0,0c1.5,1.3,3.1,2.8,4.8,4c1.8,1.3,3.5,2.2,5.3,3.3c3.5,2.2,6.8,4.6,9.7,7.5
		c-2.6-3.2-5.6-6.1-8.8-8.7c-1.6-1.3-3.3-2.6-4.7-3.9c-0.1-0.1-0.2-0.2-0.3-0.3c6.4,3.3,13.3,5.9,17.7,11.7
		c-3.2-5.5-8.7-9.1-13.9-12.6c1.4,0.7,2.9,1.3,4.4,2c10,4.3,19.2,14.3,19.2,14.3s-3.2-7.9-10.1-13.1c0,0,8.9,5.2,13.5,10
		c0,0,21-2,38.5-6.2c0,0-11.9-4.4-17.5-10.5c0,0,17.9,7.9,29.3,9.8c0,0-14.7-3.6-25.5-11c0,0,17.9,8.2,28.9,7.3
		c0,0-16.4-3.5-23.3-8.3c0,0,0.2,0,0.6,0c1.9,0.8,4.6,1.7,7.7,2.4l1,0.3l0,0c8.7,1.8,17.6,3.7,25.2,8.7c-5-4.3-11.1-7-17.3-9.3
		c1.9,0.4,3.8,0.8,5.4,1.4c8.7,2.7,16,2.1,16,2.1s-9.6-2-14.6-4.6c10,2.5,20.7,3,20.7,3c29.2-6.6,42.1-28.8,42.1-28.8
		c-6,3.3-13.1,6-19.7,8.1C704.3,298,708.3,295.6,711.4,292.5z"/>
</g>
</svg>
