<?xml version="1.0" encoding="utf-8"?>
<!-- Generator: Adobe Illustrator 19.2.0, SVG Export Plug-In . SVG Version: 6.00 Build 0)  -->
<svg version="1.1" id="Calque_1" xmlns="http://www.w3.org/2000/svg" xmlns:xlink="http://www.w3.org/1999/xlink" x="0px" y="0px"
	 viewBox="0 0 637 256" style="enable-background:new 0 0 637 256;" xml:space="preserve">
<style type="text/css">
	.st0{fill:#FFFFFF;}
</style>
<g>
	<path class="st0" d="M356.3,85.2c0,4.8-2.4,6.6-7.1,6.6h-10.1V115h-10.3V52.2h20.4c4.6,0,7.1,1.9,7.1,6.7V85.2z M346,82.6V61.5
		h-6.9v21.1H346z"/>
	<path class="st0" d="M388.1,108.4c0,4.8-2.4,6.6-7.1,6.6h-13.4c-4.6,0-7.1-1.8-7.1-6.6V52.2h10.3v53.5h6.9V52.2h10.3V108.4z"/>
	<path class="st0" d="M420.1,115h-10.3V91.8h-6.9V115h-10.3V52.2h20.4c4.6,0,7.1,1.9,7.1,6.7V82c0,3.1-1.4,4.5-3.8,5.2v0.2
		c2.3,0.2,3.8,1.7,3.8,4.7V115z M409.8,82.6V61.5h-6.9v21.1H409.8z"/>
	<path class="st0" d="M452.2,85.2c0,4.8-2.4,6.6-7.1,6.6H435V115h-10.3V52.2h20.4c4.6,0,7.1,1.9,7.1,6.7V85.2z M441.9,82.6V61.5H435
		v21.1H441.9z"/>
	<path class="st0" d="M478.6,115h-22.2V52.2h10.3v53.5h11.9V115z"/>
	<path class="st0" d="M504.4,115h-22.2V52.2h22.2v9.3h-11.9v17.9h11.1v9.1h-11.1v17.1h11.9V115z"/>
	<path class="st0" d="M356.4,209.3h-20.5c-4.6,0-7.1-1.7-7.1-6.4v-49.6c0-4.8,2.5-6.7,7.2-6.7h18.2v9.3h-15.1V200h7v-26.3h10.3
		V209.3z"/>
	<path class="st0" d="M388.5,209.3h-10.3v-23.1h-6.9v23.1h-10.3v-62.7h20.4c4.6,0,7.1,1.9,7.1,6.7v23.1c0,3.1-1.4,4.5-3.8,5.2v0.2
		c2.3,0.2,3.8,1.7,3.8,4.7V209.3z M378.2,177v-21.1h-6.9V177H378.2z"/>
	<path class="st0" d="M420.6,209.3h-10.3v-23.1h-7v23.1H393v-56.1c0-4.8,2.5-6.7,7.2-6.7h13.4c4.6,0,7.1,1.9,7.1,6.7V209.3z
		 M410.3,177v-21.1h-7V177H410.3z"/>
	<path class="st0" d="M452.6,202.9c0,4.3-2.4,6.4-6.9,6.4h-20.6v-62.7h20.6c4.3,0,6.9,1.7,6.9,6.4V202.9z M442.3,200v-44.2h-6.9V200
		H442.3z"/>
	<path class="st0" d="M467.4,209.3h-10.3v-62.7h10.3V209.3z"/>
	<path class="st0" d="M494.1,209.3h-22.2v-62.7h22.2v9.3h-11.9v17.9h11.1v9.1h-11.1V200h11.9V209.3z"/>
	<path class="st0" d="M525.3,209.3H515v-53.5h-7v53.5h-10.3v-62.7h20.5c4.6,0,7.1,1.9,7.1,6.7V209.3z"/>
	<path class="st0" d="M557.2,155.8h-9v53.5h-10.3v-53.5h-9v-9.3h28.3V155.8z"/>
</g>
<g>
	<path class="st0" d="M280.7,58.9c0-4.8,2.4-6.7,7.1-6.7h20.4V115h-10.3V91.8h-10.1c-4.6,0-7.1-1.8-7.1-6.6V58.9z M297.9,82.6V61.5
		H291v21.1H297.9z"/>
	<path class="st0" d="M248.9,52.2h10.3v53.5h6.9V52.2h10.3v56.1c0,4.8-2.4,6.6-7.1,6.6H256c-4.6,0-7.1-1.8-7.1-6.6V52.2z"/>
	<path class="st0" d="M216.9,92.2c0-3.1,1.5-4.5,3.8-4.7v-0.2c-2.4-0.7-3.8-2.1-3.8-5.2V58.9c0-4.8,2.4-6.7,7.1-6.7h20.4V115h-10.3
		V91.8h-6.9V115h-10.3V92.2z M234.1,82.6V61.5h-6.9v21.1H234.1z"/>
	<path class="st0" d="M184.8,58.9c0-4.8,2.4-6.7,7.1-6.7h20.4V115H202V91.8h-10.1c-4.6,0-7.1-1.8-7.1-6.6V58.9z M202,82.6V61.5h-6.9
		v21.1H202z"/>
	<path class="st0" d="M158.4,105.7h11.9V52.2h10.3V115h-22.2V105.7z"/>
	<path class="st0" d="M132.6,105.7h11.9V88.5h-11.1v-9.1h11.1V61.5h-11.9v-9.3h22.2V115h-22.2V105.7z"/>
	<path class="st0" d="M280.6,173.8h10.3V200h7v-44.2h-15.1v-9.3h18.2c4.6,0,7.2,1.9,7.2,6.7v49.6c0,4.7-2.5,6.4-7.1,6.4h-20.5V173.8
		z"/>
	<path class="st0" d="M248.5,186.5c0-3.1,1.5-4.5,3.8-4.7v-0.2c-2.4-0.7-3.8-2.1-3.8-5.2v-23.1c0-4.8,2.4-6.7,7.1-6.7h20.4v62.7
		h-10.3v-23.1h-6.9v23.1h-10.3V186.5z M265.8,177v-21.1h-6.9V177H265.8z"/>
	<path class="st0" d="M216.4,153.2c0-4.8,2.4-6.7,7.1-6.7h13.4c4.6,0,7.2,1.9,7.2,6.7v56.1h-10.3v-23.1h-7v23.1h-10.3V153.2z
		 M233.7,177v-21.1h-7V177H233.7z"/>
	<path class="st0" d="M184.4,153c0-4.7,2.6-6.4,6.9-6.4h20.6v62.7h-20.6c-4.5,0-6.9-2.1-6.9-6.4V153z M201.6,200v-44.2h-6.9V200
		H201.6z"/>
	<path class="st0" d="M169.6,146.6h10.3v62.7h-10.3V146.6z"/>
	<path class="st0" d="M142.9,200h11.9v-17.1h-11.1v-9.1h11.1v-17.9h-11.9v-9.3h22.2v62.7h-22.2V200z"/>
	<path class="st0" d="M111.7,153.2c0-4.8,2.4-6.7,7.1-6.7h20.5v62.7H129v-53.5h-7v53.5h-10.3V153.2z"/>
	<path class="st0" d="M79.8,146.6h28.3v9.3h-9v53.5H88.8v-53.5h-9V146.6z"/>
</g>
<rect x="316" y="25" class="st0" width="5.5" height="212"/>
</svg>
